<?xml version="1.0" encoding="UTF-8" ?>
<!-- https://openclipart.org/detail/325057/cute-cow-or-bull -->
<!DOCTYPE svg PUBLIC "-//W3C//DTD SVG 1.1//EN" "http://www.w3.org/Graphics/SVG/1.1/DTD/svg11.dtd">
<svg width="231pt" height="193pt" viewBox="0 0 231 193" version="1.1" xmlns="http://www.w3.org/2000/svg">
<g id="#fefefeff">
<path fill="#fefefe" opacity="1.00" d=" M 169.54 0.00 L 180.43 0.00 C 186.24 1.24 192.09 3.32 196.43 7.54 C 189.08 3.09 162.91 -5.59 168.19 7.85 C 163.98 5.33 164.06 0.45 169.54 0.00 Z" />
<path fill="#fefefe" opacity="1.00" d=" M 168.72 8.35 C 171.48 9.40 174.17 10.65 176.57 12.38 C 173.61 11.84 170.68 10.75 168.72 8.35 Z" />
<path fill="#fefefe" opacity="1.00" d=" M 197.00 8.03 C 203.47 13.25 198.97 22.52 199.26 29.43 C 203.27 32.54 207.35 35.57 211.09 39.01 C 195.55 35.15 200.44 20.07 197.00 8.03 Z" />
<path fill="#fefefe" opacity="1.00" d=" M 177.84 13.22 C 182.91 16.05 180.64 23.32 178.56 27.29 C 162.47 36.67 141.94 30.00 126.11 30.99 C 141.42 26.43 157.33 35.88 172.45 28.54 C 180.06 27.78 181.20 18.73 177.84 13.22 Z" />
<path fill="#fefefe" opacity="1.00" d=" M 121.02 18.36 C 129.41 7.78 132.24 20.91 126.39 27.67 C 128.60 20.17 131.06 11.14 121.02 18.36 Z" />
<path fill="#fefefe" opacity="1.00" d=" M 119.24 20.32 C 119.43 20.08 119.83 19.58 120.03 19.34 C 119.83 19.58 119.43 20.08 119.24 20.32 Z" />
<path fill="#fefefe" opacity="1.00" d=" M 118.00 21.75 C 118.21 21.51 118.64 21.05 118.85 20.82 C 118.64 21.05 118.21 21.51 118.00 21.75 Z" />
<path fill="#fefefe" opacity="1.00" d=" M 107.92 37.93 C 109.97 32.90 111.72 27.38 115.94 23.69 C 113.72 28.68 111.54 33.75 107.92 37.93 Z" />
<path fill="#fefefe" opacity="1.00" d=" M 175.28 32.62 C 182.10 33.22 189.40 36.65 196.04 33.29 C 205.95 38.60 213.90 48.57 225.62 50.57 C 229.25 63.84 203.51 64.02 202.20 51.60 C 206.13 50.75 216.36 56.62 216.05 50.21 C 209.13 48.73 192.53 42.18 198.76 56.96 C 204.86 66.22 191.80 79.42 183.66 69.15 C 178.13 74.56 200.21 80.46 199.31 69.04 C 202.14 79.23 206.45 94.51 205.50 107.00 C 190.05 117.38 170.38 121.69 151.89 118.32 C 145.91 117.43 142.42 104.35 150.61 104.59 C 170.25 98.51 181.35 73.81 172.90 55.06 C 169.59 45.29 154.70 30.53 175.28 32.62 Z" />
<path fill="#fefefe" opacity="1.00" d=" M 133.80 33.73 C 137.41 32.65 141.17 33.25 144.76 33.98 C 143.97 42.22 118.83 36.95 133.80 33.73 Z" />
<path fill="#fefefe" opacity="1.00" d=" M 49.35 49.37 C 51.36 37.24 62.07 30.40 73.23 38.91 C 62.17 33.72 51.84 36.92 50.17 50.22 C 50.24 66.49 23.06 74.62 20.26 55.77 C 25.67 72.35 48.50 64.90 49.35 49.37 Z" />
<path fill="#fefefe" opacity="1.00" d=" M 73.23 38.91 C 84.40 39.30 95.60 38.89 106.78 39.18 C 96.30 42.00 84.09 39.67 73.23 38.91 Z" />
<path fill="#fefefe" opacity="1.00" d=" M 60.93 40.55 C 63.49 40.39 66.16 40.45 68.60 41.33 C 67.85 53.47 54.97 62.14 54.25 74.79 C 57.08 84.80 64.09 99.81 76.81 94.02 C 89.03 90.83 83.94 74.59 85.06 65.55 C 91.48 60.04 99.18 55.98 105.67 50.45 C 114.60 43.08 120.07 54.93 128.53 55.43 C 130.32 67.56 111.84 59.71 106.20 66.35 C 103.64 76.28 93.89 84.56 96.97 95.86 C 107.83 109.24 126.50 117.13 143.59 110.35 C 144.34 119.61 154.15 124.18 155.43 133.32 C 160.41 139.01 168.76 137.71 175.47 136.32 C 181.98 145.47 193.25 153.57 192.50 166.28 C 187.33 175.18 178.51 163.86 172.25 163.07 C 165.70 168.18 163.48 181.64 153.08 177.01 C 150.86 174.73 155.79 153.43 150.21 163.22 C 134.72 169.47 117.01 170.36 101.03 166.40 C 104.66 180.41 83.74 175.65 84.52 164.82 C 96.76 165.38 83.23 161.22 79.15 162.02 C 71.70 161.69 66.85 176.10 58.96 170.10 C 49.51 168.81 57.13 156.66 54.76 150.66 C 50.40 147.14 45.57 144.26 41.35 140.59 C 47.94 128.02 49.88 105.78 39.25 92.80 C 35.58 84.96 48.23 76.35 44.16 69.16 C 32.15 75.87 0.76 77.73 5.16 54.29 C 16.70 47.03 18.58 63.97 23.04 69.14 C 45.75 77.54 51.24 53.51 60.93 40.55 M 62.12 113.43 C 60.56 112.92 60.94 115.96 60.40 116.98 C 49.83 133.03 69.49 142.01 79.72 150.33 C 89.48 159.39 100.31 149.98 109.24 145.03 C 110.98 136.27 101.79 130.29 94.34 127.71 C 85.81 125.19 83.88 115.28 78.41 109.31 C 72.27 108.57 61.92 103.43 62.12 113.43 Z" />
<path fill="#fefefe" opacity="1.00" d=" M 212.42 39.68 C 219.73 40.77 225.29 45.98 231.00 50.20 L 231.00 56.35 C 226.58 66.36 213.60 67.69 205.46 62.59 C 209.33 76.35 205.04 92.39 213.58 104.29 C 215.84 113.67 208.02 121.66 210.54 131.07 C 213.07 141.91 199.49 147.05 191.60 147.91 C 193.74 154.50 199.58 161.24 201.60 168.49 C 198.16 161.27 190.66 154.71 191.06 146.26 C 200.68 146.62 212.99 138.79 209.60 127.72 C 207.85 117.58 218.55 106.95 208.27 98.28 C 207.79 85.86 205.70 73.55 204.32 61.21 C 212.31 63.70 222.31 67.33 228.37 58.17 C 233.97 47.53 218.88 44.56 212.42 39.68 Z" />
<path fill="#fefefe" opacity="1.00" d=" M 0.00 50.92 C 5.65 47.54 13.77 47.73 17.98 53.21 C 12.61 49.26 6.02 49.61 0.00 51.81 L 0.00 50.92 Z" />
<path fill="#fefefe" opacity="1.00" d=" M 0.63 53.40 C 4.09 59.80 2.41 69.21 9.28 73.97 C 18.99 77.65 29.62 74.21 39.65 76.20 C 38.23 93.59 22.28 106.74 20.68 124.28 C 31.40 141.45 60.31 149.22 51.02 173.93 C 58.14 148.38 27.98 141.61 18.32 122.84 C 23.33 106.84 34.64 93.24 38.74 76.97 C 28.59 76.40 17.99 78.29 8.19 74.99 C 1.79 69.72 1.50 60.96 0.63 53.40 Z" />
<path fill="#fefefe" opacity="1.00" d=" M 193.90 133.96 C 194.40 133.73 195.40 133.28 195.90 133.06 C 195.40 133.28 194.40 133.73 193.90 133.96 Z" />
<path fill="#fefefe" opacity="1.00" d=" M 51.65 184.60 C 63.10 184.90 67.02 165.70 79.11 166.54 C 85.38 172.54 87.24 181.32 91.80 188.48 C 84.61 183.14 85.18 172.34 77.62 167.20 C 67.22 169.26 62.49 188.23 51.65 184.60 Z" />
<path fill="#fefefe" opacity="1.00" d=" M 166.16 178.15 C 170.83 156.14 187.65 177.05 200.04 179.39 C 189.81 179.69 182.72 170.49 173.22 168.09 C 170.93 171.48 169.03 175.19 166.16 178.15 Z" />
<path fill="#fefefe" opacity="1.00" d=" M 131.08 173.40 C 136.25 169.85 142.81 169.31 148.91 169.37 C 149.60 176.84 147.98 184.73 150.21 191.99 C 157.44 192.54 159.84 182.51 165.26 179.25 C 162.16 184.24 158.78 189.11 154.31 193.00 L 148.73 193.00 C 147.99 185.45 147.96 177.85 148.04 170.28 C 142.26 170.33 136.65 171.99 131.08 173.40 Z" />
<path fill="#fefefe" opacity="1.00" d=" M 202.04 169.12 C 204.44 171.81 204.85 176.61 201.41 178.61 C 202.98 175.66 202.89 172.27 202.04 169.12 Z" />
<path fill="#fefefe" opacity="1.00" d=" M 104.62 170.71 C 112.94 168.98 120.44 178.00 129.46 174.00 C 121.67 177.30 114.19 173.33 106.87 171.30 C 101.54 172.73 106.24 188.52 100.71 188.02 C 102.36 182.33 103.52 176.52 104.62 170.71 Z" />
<path fill="#fefefe" opacity="1.00" d=" M 50.67 183.14 C 48.78 180.32 50.74 176.88 51.02 173.93 C 50.86 177.00 50.76 180.05 50.67 183.14 Z" />
<path fill="#fefefe" opacity="1.00" d=" M 93.02 189.42 C 94.59 189.60 96.16 189.73 97.74 189.83 C 98.10 189.78 98.82 189.66 99.17 189.60 L 99.86 189.31 C 98.69 192.21 94.94 190.99 93.02 189.42 Z" />
</g>
<g id="#1e1e1eff">
<path fill="#1e1e1e" opacity="1.00" d=" M 168.19 7.85 C 162.91 -5.59 189.08 3.09 196.43 7.54 L 197.00 8.03 C 200.44 20.07 195.55 35.15 211.09 39.01 C 211.42 39.18 212.09 39.51 212.42 39.68 C 218.88 44.56 233.97 47.53 228.37 58.17 C 222.31 67.33 212.31 63.70 204.32 61.21 C 205.70 73.55 207.79 85.86 208.27 98.28 C 218.55 106.95 207.85 117.58 209.60 127.72 C 212.99 138.79 200.68 146.62 191.06 146.26 C 190.66 154.71 198.16 161.27 201.60 168.49 L 202.04 169.12 C 202.89 172.27 202.98 175.66 201.41 178.61 C 201.07 178.80 200.38 179.20 200.04 179.39 C 187.65 177.05 170.83 156.14 166.16 178.15 C 165.93 178.43 165.48 178.97 165.26 179.25 C 159.84 182.51 157.44 192.54 150.21 191.99 C 147.98 184.73 149.60 176.84 148.91 169.37 C 142.81 169.31 136.25 169.85 131.08 173.40 C 130.68 173.55 129.86 173.85 129.46 174.00 C 120.44 178.00 112.94 168.98 104.62 170.71 C 103.52 176.52 102.36 182.33 100.71 188.02 C 100.50 188.34 100.07 188.99 99.86 189.31 L 99.17 189.60 C 98.82 189.66 98.10 189.78 97.74 189.83 C 96.16 189.73 94.59 189.60 93.02 189.42 C 92.71 189.19 92.10 188.72 91.80 188.48 C 87.24 181.32 85.38 172.54 79.11 166.54 C 67.02 165.70 63.10 184.90 51.65 184.60 C 51.40 184.24 50.91 183.50 50.67 183.14 C 50.76 180.05 50.86 177.00 51.02 173.93 C 60.31 149.22 31.40 141.45 20.68 124.28 C 22.28 106.74 38.23 93.59 39.65 76.20 C 29.62 74.21 18.99 77.65 9.28 73.97 C 2.41 69.21 4.09 59.80 0.63 53.40 L 0.00 52.72 L 0.00 51.81 C 6.02 49.61 12.61 49.26 17.98 53.21 C 18.25 53.45 18.77 53.93 19.03 54.17 C 19.24 54.43 19.66 54.95 19.87 55.21 L 20.26 55.77 C 23.06 74.62 50.24 66.49 50.17 50.22 C 51.84 36.92 62.17 33.72 73.23 38.91 C 84.09 39.67 96.30 42.00 106.78 39.18 C 107.07 38.87 107.63 38.24 107.92 37.93 C 111.54 33.75 113.72 28.68 115.94 23.69 C 116.63 23.04 117.31 22.39 118.00 21.75 C 118.21 21.51 118.64 21.05 118.85 20.82 L 119.24 20.32 C 119.43 20.08 119.83 19.58 120.03 19.34 C 120.28 19.09 120.77 18.60 121.02 18.36 C 131.06 11.14 128.60 20.17 126.39 27.67 C 126.19 28.76 126.09 29.87 126.11 30.99 C 141.94 30.00 162.47 36.67 178.56 27.29 C 180.64 23.32 182.91 16.05 177.84 13.22 C 177.52 13.01 176.89 12.59 176.57 12.38 C 174.17 10.65 171.48 9.40 168.72 8.35 L 168.19 7.85 M 171.57 3.86 C 172.37 7.96 181.55 9.52 182.75 15.36 C 185.81 20.94 181.21 26.48 181.22 32.07 C 183.66 31.65 195.61 33.73 192.22 28.97 C 182.01 26.00 204.32 25.47 190.09 22.84 C 195.25 21.06 198.69 16.77 190.03 18.92 C 195.57 14.65 195.32 7.04 186.97 12.90 C 194.68 5.17 176.57 1.77 171.57 3.86 M 123.96 21.19 C 116.32 22.58 105.41 49.63 118.69 39.58 C 124.40 40.42 111.92 44.91 117.36 47.78 C 120.91 50.22 126.56 39.94 124.35 47.19 C 122.81 55.53 131.35 39.01 130.22 47.20 C 124.99 55.56 137.89 56.02 139.13 48.87 C 142.43 38.87 125.59 42.63 122.07 35.85 C 122.68 30.96 123.63 26.11 123.96 21.19 M 175.28 32.62 C 154.70 30.53 169.59 45.29 172.90 55.06 C 181.35 73.81 170.25 98.51 150.61 104.59 C 142.42 104.35 145.91 117.43 151.89 118.32 C 170.38 121.69 190.05 117.38 205.50 107.00 C 206.45 94.51 202.14 79.23 199.31 69.04 C 200.21 80.46 178.13 74.56 183.66 69.15 C 191.80 79.42 204.86 66.22 198.76 56.96 C 192.53 42.18 209.13 48.73 216.05 50.21 C 216.36 56.62 206.13 50.75 202.20 51.60 C 203.51 64.02 229.25 63.84 225.62 50.57 C 213.90 48.57 205.95 38.60 196.04 33.29 C 189.40 36.65 182.10 33.22 175.28 32.62 M 133.80 33.73 C 118.83 36.95 143.97 42.22 144.76 33.98 C 141.17 33.25 137.41 32.65 133.80 33.73 M 146.60 37.45 C 137.75 36.57 145.86 47.43 140.54 51.57 C 128.35 60.32 117.70 72.43 107.97 84.04 C 112.92 90.78 126.29 86.80 131.05 81.69 C 132.85 69.20 123.96 77.07 118.24 78.17 C 120.41 73.77 126.20 71.31 130.70 69.99 C 138.99 78.40 138.86 92.42 143.81 102.43 C 154.49 103.58 162.52 92.88 170.03 86.62 C 175.85 69.88 169.97 50.40 160.62 36.99 C 157.12 37.11 150.11 37.34 146.60 37.45 M 60.93 40.55 C 51.24 53.51 45.75 77.54 23.04 69.14 C 18.58 63.97 16.70 47.03 5.16 54.29 C 0.76 77.73 32.15 75.87 44.16 69.16 C 48.23 76.35 35.58 84.96 39.25 92.80 C 49.88 105.78 47.94 128.02 41.35 140.59 C 45.57 144.26 50.40 147.14 54.76 150.66 C 57.13 156.66 49.51 168.81 58.96 170.10 C 66.85 176.10 71.70 161.69 79.15 162.02 C 83.23 161.22 96.76 165.38 84.52 164.82 C 83.74 175.65 104.66 180.41 101.03 166.40 C 117.01 170.36 134.72 169.47 150.21 163.22 C 155.79 153.43 150.86 174.73 153.08 177.01 C 163.48 181.64 165.70 168.18 172.25 163.07 C 178.51 163.86 187.33 175.18 192.50 166.28 C 193.25 153.57 181.98 145.47 175.47 136.32 C 168.76 137.71 160.41 139.01 155.43 133.32 C 154.15 124.18 144.34 119.61 143.59 110.35 C 126.50 117.13 107.83 109.24 96.97 95.86 C 93.89 84.56 103.64 76.28 106.20 66.35 C 111.84 59.71 130.32 67.56 128.53 55.43 C 120.07 54.93 114.60 43.08 105.67 50.45 C 99.18 55.98 91.48 60.04 85.06 65.55 C 83.94 74.59 89.03 90.83 76.81 94.02 C 64.09 99.81 57.08 84.80 54.25 74.79 C 54.97 62.14 67.85 53.47 68.60 41.33 C 66.16 40.45 63.49 40.39 60.93 40.55 M 71.83 43.21 C 67.27 50.43 63.66 58.22 59.83 65.84 C 53.72 77.84 65.17 97.53 79.56 89.88 C 87.50 82.16 74.37 66.07 86.28 60.18 C 94.31 54.05 103.66 49.75 111.24 43.05 C 98.25 46.05 84.95 41.28 71.83 43.21 M 114.65 66.43 C 104.98 69.97 100.38 82.79 99.33 92.41 C 106.65 107.04 127.72 115.14 141.91 105.69 C 138.71 99.14 138.14 90.02 133.05 85.13 C 124.49 91.46 110.27 95.01 102.90 85.76 C 102.42 77.32 127.22 66.44 114.65 66.43 M 36.47 94.76 C 32.12 100.59 29.48 107.42 27.68 114.43 C 18.21 123.59 34.23 133.49 40.69 137.72 C 45.66 124.41 44.09 104.62 36.47 94.76 M 207.67 109.70 C 191.40 117.90 174.15 126.51 155.33 122.70 C 155.09 127.77 157.70 134.37 163.63 134.33 C 160.60 133.17 153.51 124.20 160.64 127.28 C 164.99 135.98 185.06 131.85 172.67 124.60 C 178.98 122.43 188.44 122.22 185.15 131.15 C 189.64 129.48 202.18 130.15 197.66 123.26 C 195.51 120.04 201.44 112.00 203.98 117.08 C 207.97 121.57 210.78 108.36 207.67 109.70 M 200.31 119.21 C 198.83 122.65 203.66 124.16 203.75 127.47 C 206.39 139.90 179.47 145.41 182.12 130.78 C 184.07 122.62 176.69 126.26 177.89 131.04 C 176.26 149.38 207.72 145.19 207.66 129.37 C 206.22 125.60 205.84 117.52 200.31 119.21 M 198.20 131.22 C 197.27 131.63 196.51 132.24 195.90 133.06 C 195.40 133.28 194.40 133.73 193.90 133.96 C 174.67 134.63 201.69 139.27 199.25 130.40 C 198.99 130.61 198.46 131.01 198.20 131.22 M 197.82 171.95 C 198.41 172.47 198.41 172.47 197.82 171.95 C 197.01 165.94 191.53 171.77 197.82 171.95 M 52.92 171.28 C 53.44 174.07 50.86 179.39 54.72 180.11 C 55.92 176.69 59.39 170.13 52.92 171.28 M 191.36 171.40 C 192.02 177.18 197.56 170.72 191.36 171.40 M 60.37 173.18 C 54.57 180.77 68.24 172.94 60.37 173.18 M 92.15 177.72 C 92.03 188.24 99.39 184.77 92.15 177.72 M 97.15 178.24 C 94.45 189.30 102.62 180.74 97.15 178.24 M 152.05 179.29 C 148.48 194.32 160.07 180.39 152.05 179.29 M 157.15 181.39 C 156.31 185.38 161.14 180.59 157.15 181.39 Z" />
<path fill="#1e1e1e" opacity="1.00" d=" M 166.56 70.05 C 173.58 84.65 148.78 87.98 147.03 74.96 C 154.32 80.32 165.77 82.99 166.56 70.05 Z" />
<path fill="#1e1e1e" opacity="1.00" d=" M 62.12 113.43 C 61.92 103.43 72.27 108.57 78.41 109.31 C 83.88 115.28 85.81 125.19 94.34 127.71 C 101.79 130.29 110.98 136.27 109.24 145.03 C 100.31 149.98 89.48 159.39 79.72 150.33 C 69.49 142.01 49.83 133.03 60.40 116.98 C 54.15 132.83 71.18 140.77 81.37 148.82 C 89.84 152.85 104.46 150.04 107.08 140.38 C 101.40 129.46 83.49 132.10 80.75 118.28 C 79.72 107.94 63.33 112.73 62.12 113.43 Z" />
</g>
<g id="#939393fe">
<path fill="#939393" opacity="1.00" d=" M 171.57 3.86 C 176.57 1.77 194.68 5.17 186.97 12.90 C 195.32 7.04 195.57 14.65 190.03 18.92 C 198.69 16.77 195.25 21.06 190.09 22.84 C 204.32 25.47 182.01 26.00 192.22 28.97 C 195.61 33.73 183.66 31.65 181.22 32.07 C 181.21 26.48 185.81 20.94 182.75 15.36 C 181.55 9.52 172.37 7.96 171.57 3.86 Z" />
<path fill="#939393" opacity="1.00" d=" M 123.96 21.19 C 123.63 26.11 122.68 30.96 122.07 35.85 C 125.59 42.63 142.43 38.87 139.13 48.87 C 137.89 56.02 124.99 55.56 130.22 47.20 C 131.35 39.01 122.81 55.53 124.35 47.19 C 126.56 39.94 120.91 50.22 117.36 47.78 C 111.92 44.91 124.40 40.42 118.69 39.58 C 105.41 49.63 116.32 22.58 123.96 21.19 Z" />
<path fill="#939393" opacity="1.00" d=" M 19.03 54.17 C 19.24 54.43 19.66 54.95 19.87 55.21 C 19.66 54.95 19.24 54.43 19.03 54.17 Z" />
<path fill="#939393" opacity="1.00" d=" M 197.82 171.95 C 191.53 171.77 197.01 165.94 197.82 171.95 Z" />
<path fill="#939393" opacity="1.00" d=" M 52.92 171.28 C 59.39 170.13 55.92 176.69 54.72 180.11 C 50.86 179.39 53.44 174.07 52.92 171.28 Z" />
<path fill="#939393" opacity="1.00" d=" M 191.36 171.40 C 197.56 170.72 192.02 177.18 191.36 171.40 Z" />
<path fill="#939393" opacity="1.00" d=" M 197.82 171.95 C 198.41 172.47 198.41 172.47 197.82 171.95 Z" />
<path fill="#939393" opacity="1.00" d=" M 60.37 173.18 C 68.24 172.94 54.57 180.77 60.37 173.18 Z" />
<path fill="#939393" opacity="1.00" d=" M 92.15 177.72 C 99.39 184.77 92.03 188.24 92.15 177.72 Z" />
<path fill="#939393" opacity="1.00" d=" M 97.15 178.24 C 102.62 180.74 94.45 189.30 97.15 178.24 Z" />
<path fill="#939393" opacity="1.00" d=" M 152.05 179.29 C 160.07 180.39 148.48 194.32 152.05 179.29 Z" />
<path fill="#939393" opacity="1.00" d=" M 157.15 181.39 C 161.14 180.59 156.31 185.38 157.15 181.39 Z" />
</g>
<g id="#343434ff">
<path fill="#343434" opacity="1.00" d=" M 146.60 37.45 C 150.11 37.34 157.12 37.11 160.62 36.99 C 169.97 50.40 175.85 69.88 170.03 86.62 C 162.52 92.88 154.49 103.58 143.81 102.43 C 138.86 92.42 138.99 78.40 130.70 69.99 C 126.20 71.31 120.41 73.77 118.24 78.17 C 123.96 77.07 132.85 69.20 131.05 81.69 C 126.29 86.80 112.92 90.78 107.97 84.04 C 117.70 72.43 128.35 60.32 140.54 51.57 C 145.86 47.43 137.75 36.57 146.60 37.45 M 166.56 70.05 C 165.77 82.99 154.32 80.32 147.03 74.96 C 148.78 87.98 173.58 84.65 166.56 70.05 Z" />
<path fill="#343434" opacity="1.00" d=" M 71.83 43.21 C 84.95 41.28 98.25 46.05 111.24 43.05 C 103.66 49.75 94.31 54.05 86.28 60.18 C 74.37 66.07 87.50 82.16 79.56 89.88 C 65.17 97.53 53.72 77.84 59.83 65.84 C 63.66 58.22 67.27 50.43 71.83 43.21 Z" />
<path fill="#343434" opacity="1.00" d=" M 114.65 66.43 C 127.22 66.44 102.42 77.32 102.90 85.76 C 110.27 95.01 124.49 91.46 133.05 85.13 C 138.14 90.02 138.71 99.14 141.91 105.69 C 127.72 115.14 106.65 107.04 99.33 92.41 C 100.38 82.79 104.98 69.97 114.65 66.43 Z" />
<path fill="#343434" opacity="1.00" d=" M 36.47 94.76 C 44.09 104.62 45.66 124.41 40.69 137.72 C 34.23 133.49 18.21 123.59 27.68 114.43 C 29.48 107.42 32.12 100.59 36.47 94.76 Z" />
<path fill="#343434" opacity="1.00" d=" M 207.67 109.70 C 210.78 108.36 207.97 121.57 203.98 117.08 C 201.44 112.00 195.51 120.04 197.66 123.26 C 202.18 130.15 189.64 129.48 185.15 131.15 C 188.44 122.22 178.98 122.43 172.67 124.60 C 185.06 131.85 164.99 135.98 160.64 127.28 C 153.51 124.20 160.60 133.17 163.63 134.33 C 157.70 134.37 155.09 127.77 155.33 122.70 C 174.15 126.51 191.40 117.90 207.67 109.70 Z" />
<path fill="#343434" opacity="1.00" d=" M 62.12 113.43 C 63.33 112.73 79.72 107.94 80.75 118.28 C 83.49 132.10 101.40 129.46 107.08 140.38 C 104.46 150.04 89.84 152.85 81.37 148.82 C 71.18 140.77 54.15 132.83 60.40 116.98 C 60.94 115.96 60.56 112.92 62.12 113.43 Z" />
<path fill="#343434" opacity="1.00" d=" M 198.20 131.22 C 198.46 131.01 198.99 130.61 199.25 130.40 C 198.99 130.61 198.46 131.01 198.20 131.22 Z" />
</g>
<g id="#fee900ff">
<path fill="#fee900" opacity="1.00" d=" M 200.31 119.21 C 205.84 117.52 206.22 125.60 207.66 129.37 C 207.72 145.19 176.26 149.38 177.89 131.04 C 176.69 126.26 184.07 122.62 182.12 130.78 C 179.47 145.41 206.39 139.90 203.75 127.47 C 203.66 124.16 198.83 122.65 200.31 119.21 Z" />
</g>
</svg>
